<svg width="27" height="27" viewBox="0 0 27 27" fill="none" xmlns="http://www.w3.org/2000/svg">
<rect x="0.2854" y="0.284698" width="25.8404" height="25.8404" rx="12.9202" fill="#FFECEC"/>
<path d="M16.4943 11.7954C16.4943 11.3635 16.4092 10.9359 16.244 10.5369C16.0787 10.1378 15.8364 9.77529 15.531 9.4699C15.2257 9.16451 14.8631 8.92226 14.4641 8.75698C14.0651 8.5917 13.6374 8.50664 13.2055 8.50664C12.7736 8.50664 12.346 8.5917 11.947 8.75698C11.548 8.92226 11.1854 9.16451 10.88 9.4699C10.5746 9.77529 10.3324 10.1378 10.1671 10.5369C10.0018 10.9359 9.91675 11.3635 9.91675 11.7954C9.91675 12.4471 10.1094 13.0531 10.4359 13.5643H10.4321C11.5409 15.3003 13.2055 17.9032 13.2055 17.9032L15.9789 13.5643H15.9756C16.3141 13.0364 16.4941 12.4225 16.4943 11.7954ZM13.2055 13.2049C12.8317 13.2049 12.4732 13.0564 12.2089 12.7921C11.9445 12.5277 11.7961 12.1692 11.7961 11.7954C11.7961 11.4216 11.9445 11.0631 12.2089 10.7988C12.4732 10.5344 12.8317 10.3859 13.2055 10.3859C13.5793 10.3859 13.9379 10.5344 14.2022 10.7988C14.4665 11.0631 14.615 11.4216 14.615 11.7954C14.615 12.1692 14.4665 12.5277 14.2022 12.7921C13.9379 13.0564 13.5793 13.2049 13.2055 13.2049Z" fill="#F53838"/>
</svg>
