<svg width="71" height="18" viewBox="0 0 71 18" fill="none" xmlns="http://www.w3.org/2000/svg">
<path d="M22.5745 12.3649C22.5119 12.3649 22.4586 12.343 22.4148 12.2992C22.3709 12.2553 22.349 12.2021 22.349 12.1394V6.01289C22.349 5.94398 22.3709 5.89073 22.4148 5.85315C22.4586 5.80929 22.5119 5.78737 22.5745 5.78737H23.4578C23.5267 5.78737 23.58 5.80929 23.6175 5.85315C23.6614 5.89073 23.6833 5.94398 23.6833 6.01289V11.2373H26.662C26.7309 11.2373 26.7873 11.2593 26.8312 11.3031C26.875 11.347 26.8969 11.4002 26.8969 11.4629V12.1394C26.8969 12.2021 26.875 12.2553 26.8312 12.2992C26.7873 12.343 26.7309 12.3649 26.662 12.3649H22.5745ZM29.115 12.4589C28.7955 12.4589 28.5011 12.3963 28.2317 12.271C27.9686 12.1394 27.7588 11.964 27.6022 11.7448C27.4518 11.5255 27.3767 11.2843 27.3767 11.0212C27.3767 10.5953 27.5489 10.2507 27.8935 9.98761C28.238 9.72451 28.711 9.54598 29.3123 9.45201L30.5997 9.26408V9.06675C30.5997 8.79739 30.5308 8.5938 30.3929 8.45598C30.2551 8.31816 30.0359 8.24926 29.7352 8.24926C29.5285 8.24926 29.3625 8.28684 29.2372 8.36201C29.1119 8.43719 29.0085 8.51549 28.9271 8.59693C28.8519 8.6721 28.8018 8.72221 28.7767 8.74727C28.7517 8.82244 28.7047 8.86003 28.6358 8.86003H27.9029C27.8465 8.86003 27.7964 8.84124 27.7525 8.80365C27.7149 8.76606 27.6961 8.71595 27.6961 8.65331C27.7024 8.4967 27.7776 8.3213 27.9217 8.1271C28.072 7.92664 28.3007 7.75437 28.6076 7.61029C28.9146 7.45995 29.2936 7.38478 29.7446 7.38478C30.4838 7.38478 31.0225 7.55078 31.3608 7.88279C31.6991 8.2148 31.8682 8.65017 31.8682 9.18891V12.1394C31.8682 12.2021 31.8463 12.2553 31.8024 12.2992C31.7648 12.343 31.7116 12.3649 31.6427 12.3649H30.8628C30.8001 12.3649 30.7469 12.343 30.703 12.2992C30.6592 12.2553 30.6373 12.2021 30.6373 12.1394V11.7729C30.4994 11.9734 30.3052 12.1394 30.0547 12.271C29.8041 12.3963 29.4909 12.4589 29.115 12.4589ZM29.4345 11.5568C29.779 11.5568 30.0609 11.4441 30.2802 11.2186C30.4994 10.993 30.6091 10.6673 30.6091 10.2413V10.0534L29.6694 10.2037C28.949 10.3165 28.5888 10.5577 28.5888 10.9273C28.5888 11.1277 28.6703 11.2843 28.8331 11.3971C29.0023 11.5036 29.2027 11.5568 29.4345 11.5568ZM34.934 12.4589C34.4579 12.4589 34.0601 12.3869 33.7406 12.2428C33.4211 12.0987 33.1831 11.9327 33.0265 11.7448C32.8761 11.5506 32.8009 11.3846 32.8009 11.2467C32.8009 11.1841 32.8197 11.134 32.8573 11.0964C32.9012 11.0588 32.9513 11.04 33.0077 11.04H33.7782C33.8283 11.04 33.8722 11.0651 33.9097 11.1152C33.9411 11.1403 34.01 11.1998 34.1165 11.2937C34.2292 11.3877 34.3545 11.4629 34.4923 11.5192C34.6364 11.5694 34.793 11.5944 34.9621 11.5944C35.2127 11.5944 35.4163 11.5474 35.5729 11.4535C35.7295 11.3532 35.8078 11.2123 35.8078 11.0306C35.8078 10.9053 35.7702 10.8051 35.6951 10.7299C35.6262 10.6485 35.4977 10.5765 35.3098 10.5138C35.1282 10.4449 34.8525 10.3697 34.4829 10.2883C33.9505 10.1755 33.5558 10.0033 33.299 9.77149C33.0484 9.53971 32.9231 9.23276 32.9231 8.85063C32.9231 8.60006 32.9983 8.36515 33.1486 8.14589C33.299 7.92038 33.5213 7.73871 33.8158 7.6009C34.1165 7.45682 34.4735 7.38478 34.887 7.38478C35.3129 7.38478 35.6794 7.45368 35.9864 7.5915C36.2933 7.72305 36.5251 7.88279 36.6817 8.07072C36.8446 8.25865 36.926 8.42466 36.926 8.56874C36.926 8.62512 36.9041 8.67523 36.8602 8.71908C36.8227 8.75667 36.7757 8.77546 36.7193 8.77546H36.0146C35.9456 8.77546 35.8924 8.7504 35.8548 8.70029C35.811 8.66897 35.7389 8.61259 35.6387 8.53115C35.5447 8.44345 35.4382 8.37454 35.3192 8.32443C35.2002 8.27431 35.0561 8.24926 34.887 8.24926C34.6552 8.24926 34.4767 8.29937 34.3514 8.3996C34.2261 8.49983 34.1634 8.63138 34.1634 8.79425C34.1634 8.90701 34.1916 9.00098 34.248 9.07615C34.3107 9.15132 34.4328 9.22336 34.6145 9.29227C34.7961 9.35491 35.0686 9.42069 35.432 9.4896C36.5596 9.70885 37.1233 10.2006 37.1233 10.9648C37.1233 11.4096 36.9292 11.7698 36.5408 12.0454C36.1586 12.3211 35.623 12.4589 34.934 12.4589ZM38.3186 12.3649C38.256 12.3649 38.2027 12.343 38.1589 12.2992C38.115 12.2553 38.0931 12.2021 38.0931 12.1394V5.91892C38.0931 5.85001 38.115 5.79677 38.1589 5.75918C38.2027 5.71533 38.256 5.6934 38.3186 5.6934H39.1079C39.1768 5.6934 39.2301 5.71533 39.2677 5.75918C39.3115 5.79677 39.3334 5.85001 39.3334 5.91892V12.1394C39.3334 12.2021 39.3115 12.2553 39.2677 12.2992C39.2301 12.343 39.1768 12.3649 39.1079 12.3649H38.3186ZM42.6939 12.4589C41.9923 12.4589 41.4347 12.2584 41.0213 11.8575C40.6141 11.4566 40.398 10.8865 40.3729 10.1474L40.3635 9.91244C40.3635 9.1294 40.5671 8.51236 40.9743 8.06133C41.3877 7.61029 41.9578 7.38478 42.6845 7.38478C43.4299 7.38478 44.0031 7.61029 44.404 8.06133C44.8112 8.51236 45.0148 9.11374 45.0148 9.86546V10.0628C45.0148 10.1254 44.9929 10.1787 44.949 10.2225C44.9052 10.2664 44.8488 10.2883 44.7799 10.2883H41.6602V10.3635C41.6728 10.7143 41.7667 11.0056 41.9421 11.2373C42.1238 11.4629 42.3712 11.5756 42.6845 11.5756C43.0415 11.5756 43.3328 11.4315 43.5583 11.1434C43.6147 11.0745 43.6586 11.0338 43.6899 11.0212C43.7212 11.0024 43.7745 10.993 43.8496 10.993H44.6765C44.7329 10.993 44.7799 11.0087 44.8175 11.04C44.8613 11.0713 44.8832 11.1152 44.8832 11.1716C44.8832 11.3219 44.7924 11.5004 44.6108 11.7072C44.4353 11.9076 44.1816 12.083 43.8496 12.2334C43.5176 12.3837 43.1324 12.4589 42.6939 12.4589ZM43.7181 9.4896V9.4708C43.7181 9.10121 43.6241 8.80678 43.4362 8.58753C43.2545 8.36201 43.0039 8.24926 42.6845 8.24926C42.365 8.24926 42.1144 8.36201 41.9327 8.58753C41.7511 8.80678 41.6602 9.10121 41.6602 9.4708V9.4896H43.7181ZM47.8725 12.4589C47.3964 12.4589 46.9986 12.3869 46.6792 12.2428C46.3597 12.0987 46.1216 11.9327 45.965 11.7448C45.8147 11.5506 45.7395 11.3846 45.7395 11.2467C45.7395 11.1841 45.7583 11.134 45.7959 11.0964C45.8397 11.0588 45.8899 11.04 45.9462 11.04H46.7167C46.7669 11.04 46.8107 11.0651 46.8483 11.1152C46.8796 11.1403 46.9485 11.1998 47.055 11.2937C47.1678 11.3877 47.2931 11.4629 47.4309 11.5192C47.575 11.5694 47.7316 11.5944 47.9007 11.5944C48.1513 11.5944 48.3549 11.5474 48.5115 11.4535C48.6681 11.3532 48.7464 11.2123 48.7464 11.0306C48.7464 10.9053 48.7088 10.8051 48.6336 10.7299C48.5647 10.6485 48.4363 10.5765 48.2484 10.5138C48.0667 10.4449 47.7911 10.3697 47.4215 10.2883C46.889 10.1755 46.4944 10.0033 46.2375 9.77149C45.9869 9.53971 45.8617 9.23276 45.8617 8.85063C45.8617 8.60006 45.9368 8.36515 46.0872 8.14589C46.2375 7.92038 46.4599 7.73871 46.7543 7.6009C47.055 7.45682 47.4121 7.38478 47.8255 7.38478C48.2515 7.38478 48.618 7.45368 48.9249 7.5915C49.2319 7.72305 49.4637 7.88279 49.6203 8.07072C49.7831 8.25865 49.8646 8.42466 49.8646 8.56874C49.8646 8.62512 49.8427 8.67523 49.7988 8.71908C49.7612 8.75667 49.7142 8.77546 49.6579 8.77546H48.9531C48.8842 8.77546 48.831 8.7504 48.7934 8.70029C48.7495 8.66897 48.6775 8.61259 48.5773 8.53115C48.4833 8.44345 48.3768 8.37454 48.2578 8.32443C48.1388 8.27431 47.9947 8.24926 47.8255 8.24926C47.5938 8.24926 47.4152 8.29937 47.2899 8.3996C47.1646 8.49983 47.102 8.63138 47.102 8.79425C47.102 8.90701 47.1302 9.00098 47.1866 9.07615C47.2492 9.15132 47.3714 9.22336 47.553 9.29227C47.7347 9.35491 48.0072 9.42069 48.3705 9.4896C49.4981 9.70885 50.0619 10.2006 50.0619 10.9648C50.0619 11.4096 49.8677 11.7698 49.4793 12.0454C49.0972 12.3211 48.5616 12.4589 47.8725 12.4589ZM52.9204 12.3649C52.8139 12.3649 52.7262 12.3399 52.6572 12.2898C52.5946 12.2334 52.5508 12.1645 52.5257 12.083L50.6276 6.06927L50.6088 5.9847C50.6088 5.93458 50.6276 5.89073 50.6652 5.85315C50.709 5.80929 50.7592 5.78737 50.8155 5.78737H52.0465C52.1404 5.78737 52.2156 5.81556 52.272 5.87194C52.3346 5.92205 52.3754 5.97843 52.3941 6.04108L53.6721 10.2883L54.9594 6.04108C54.9782 5.97217 55.0158 5.91266 55.0722 5.86254C55.1348 5.81243 55.2131 5.78737 55.3071 5.78737H56.538C56.5944 5.78737 56.6414 5.80929 56.679 5.85315C56.7165 5.89073 56.7353 5.93458 56.7353 5.9847C56.7353 6.01602 56.7322 6.04421 56.7259 6.06927L54.8184 12.083C54.7997 12.1645 54.7558 12.2334 54.6869 12.2898C54.6243 12.3399 54.5397 12.3649 54.4332 12.3649H52.9204ZM57.8278 12.3649C57.7652 12.3649 57.7088 12.343 57.6587 12.2992C57.6148 12.249 57.5929 12.1927 57.5929 12.13V6.03168C57.5929 5.96277 57.6148 5.90639 57.6587 5.86254C57.7025 5.81243 57.7589 5.78737 57.8278 5.78737H60.487C61.3014 5.78737 61.9404 5.97217 62.4039 6.34176C62.8675 6.71136 63.0993 7.25323 63.0993 7.96736C63.0993 8.6815 62.8675 9.2171 62.4039 9.57416C61.9404 9.92497 61.3014 10.1004 60.487 10.1004H59.4158V12.13C59.4158 12.1927 59.3939 12.249 59.3501 12.2992C59.3062 12.343 59.2498 12.3649 59.1809 12.3649H57.8278ZM60.4401 8.75667C60.6969 8.75667 60.8974 8.69089 61.0414 8.55934C61.1918 8.42153 61.267 8.22107 61.267 7.95796C61.267 7.71366 61.198 7.51633 61.0602 7.36598C60.9287 7.21564 60.722 7.14047 60.4401 7.14047H59.3876V8.75667H60.4401ZM64.2053 12.3649C64.1427 12.3649 64.0863 12.343 64.0362 12.2992C63.9924 12.249 63.9704 12.1927 63.9704 12.13V6.03168C63.9704 5.96277 63.9924 5.90639 64.0362 5.86254C64.0801 5.81243 64.1364 5.78737 64.2053 5.78737H65.2671C65.4112 5.78737 65.5177 5.84688 65.5866 5.9659L67.8042 9.4708V6.03168C67.8042 5.96277 67.8261 5.90639 67.87 5.86254C67.9138 5.81243 67.9702 5.78737 68.0391 5.78737H69.2325C69.3014 5.78737 69.3578 5.81243 69.4016 5.86254C69.4455 5.90639 69.4674 5.96277 69.4674 6.03168V12.1206C69.4674 12.1895 69.4455 12.249 69.4016 12.2992C69.3578 12.343 69.3014 12.3649 69.2325 12.3649H68.1707C68.0266 12.3649 67.9201 12.3054 67.8512 12.1864L65.643 8.82244V12.13C65.643 12.1989 65.618 12.2553 65.5678 12.2992C65.524 12.343 65.4676 12.3649 65.3987 12.3649H64.2053Z" fill="#0B132A"/>
<path d="M15.1076 6.90339L15.0973 6.89316C15.0965 6.89259 15.0958 6.89182 15.0954 6.89094L8.69598 0.491333L2.2966 6.89077C2.29586 6.89152 2.29471 6.89299 2.29471 6.89299L2.28415 6.90322C1.30559 7.88727 0.684042 9.17018 0.518303 10.548C0.352563 11.9259 0.652147 13.3196 1.36943 14.5077C2.08671 15.6958 3.18052 16.61 4.477 17.1049C5.77346 17.5999 7.19818 17.6473 8.52467 17.2396C8.63629 17.2054 8.7556 17.2054 8.86723 17.2396C10.1936 17.6472 11.6182 17.5997 12.9146 17.1047C14.211 16.6097 15.3047 15.6955 16.022 14.5075C16.7392 13.3196 17.0388 11.9259 16.8731 10.5481C16.7075 9.17035 16.086 7.88744 15.1076 6.90339ZM4.57214 11.1234C4.54098 11.1546 4.51628 11.1916 4.49943 11.2322C4.48257 11.2729 4.4739 11.3165 4.47391 11.3606C4.48529 12.49 4.80449 13.595 5.39715 14.5565C5.41061 14.5784 5.41684 14.6039 5.41493 14.6294C5.41302 14.655 5.40308 14.6792 5.38652 14.6988C5.36997 14.7184 5.34765 14.7322 5.32276 14.7383C5.29787 14.7444 5.27169 14.7425 5.24796 14.7329C4.80241 14.5455 4.39765 14.273 4.05632 13.9309C3.35682 13.2312 2.96358 12.2825 2.96294 11.2932C2.9623 10.3039 3.35434 9.3547 4.05294 8.65421L8.69598 4.01161L13.3388 8.65421C14.0375 9.35462 14.4297 10.3038 14.429 11.2932C14.4284 12.2825 14.0351 13.2312 13.3356 13.9309C12.9942 14.273 12.5895 14.5455 12.144 14.7329C12.1202 14.7425 12.094 14.7444 12.0692 14.7383C12.0443 14.7322 12.022 14.7183 12.0054 14.6988C11.9888 14.6792 11.9788 14.655 11.9769 14.6293C11.975 14.6038 11.9812 14.5783 11.9947 14.5565C12.5875 13.595 12.9069 12.49 12.9184 11.3606C12.9184 11.3165 12.9097 11.2729 12.8927 11.2321C12.8758 11.1914 12.851 11.1545 12.8198 11.1233L10.6237 8.79397C10.6018 8.77571 10.5743 8.76571 10.5458 8.76571C10.5174 8.76571 10.4898 8.77571 10.4679 8.79397C10.4461 8.81215 10.4313 8.83751 10.4262 8.86553C10.4211 8.89354 10.426 8.92238 10.44 8.94716C11.2929 10.4906 10.5595 12.7076 9.33641 13.9309L9.32996 13.9373C9.16115 14.1043 8.93325 14.1979 8.69581 14.1978C8.45834 14.1978 8.2305 14.104 8.06181 13.9369L8.05587 13.9309C6.83233 12.7076 6.09928 10.4909 6.95233 8.9475C6.96636 8.92271 6.97125 8.89387 6.96614 8.86586C6.96104 8.83784 6.94628 8.81248 6.92442 8.7943C6.90257 8.77604 6.87501 8.76604 6.84654 8.76604C6.81808 8.76604 6.79051 8.77604 6.76865 8.7943L4.57214 11.1234Z" fill="#F53838"/>
</svg>
