<svg width="16" height="15" viewBox="0 0 16 15" fill="none" xmlns="http://www.w3.org/2000/svg">
<path d="M3.87046 7.34181H10.8356L8.70379 4.78126C8.6041 4.66133 8.55614 4.50671 8.57046 4.35142C8.58478 4.19612 8.6602 4.05288 8.78013 3.95319C8.90007 3.85351 9.05469 3.80555 9.20998 3.81987C9.36527 3.83419 9.50852 3.90961 9.6082 4.02954L12.5446 7.55323C12.5644 7.58126 12.582 7.6107 12.5975 7.64132C12.5975 7.67069 12.5975 7.68831 12.6386 7.71767C12.6652 7.78501 12.6791 7.85669 12.6797 7.92909C12.6791 8.0015 12.6652 8.07318 12.6386 8.14051C12.6386 8.16988 12.6386 8.1875 12.5975 8.21686C12.582 8.24748 12.5644 8.27693 12.5446 8.30495L9.6082 11.8286C9.55298 11.8949 9.48384 11.9483 9.40568 11.9848C9.32752 12.0213 9.24227 12.0402 9.15599 12.0401C9.01877 12.0403 8.88579 11.9925 8.78013 11.905C8.72067 11.8557 8.67151 11.7951 8.63548 11.7268C8.59945 11.6585 8.57725 11.5837 8.57016 11.5068C8.56307 11.4299 8.57122 11.3523 8.59415 11.2786C8.61708 11.2048 8.65434 11.1363 8.70379 11.0769L10.8356 8.51638H3.87046C3.7147 8.51638 3.56532 8.4545 3.45518 8.34436C3.34505 8.23423 3.28317 8.08485 3.28317 7.92909C3.28317 7.77334 3.34505 7.62396 3.45518 7.51382C3.56532 7.40369 3.7147 7.34181 3.87046 7.34181Z" fill="white"/>
</svg>
