<svg width="15" height="15" viewBox="0 0 15 15" fill="none" xmlns="http://www.w3.org/2000/svg">
<path d="M11.5058 7.34181H4.5406L6.67243 4.78126C6.77212 4.66133 6.82008 4.50671 6.80576 4.35142C6.79144 4.19612 6.71602 4.05288 6.59609 3.95319C6.47615 3.85351 6.32153 3.80555 6.16624 3.81987C6.01095 3.83419 5.8677 3.90961 5.76802 4.02954L2.83161 7.55323C2.81185 7.58126 2.79419 7.6107 2.77875 7.64132C2.77875 7.67069 2.77875 7.68831 2.73764 7.71767C2.71102 7.78501 2.69709 7.85669 2.69653 7.92909C2.69709 8.0015 2.71102 8.07318 2.73764 8.14051C2.73764 8.16988 2.73764 8.1875 2.77875 8.21686C2.79419 8.24748 2.81185 8.27693 2.83161 8.30495L5.76802 11.8286C5.82324 11.8949 5.89238 11.9483 5.97054 11.9848C6.0487 12.0213 6.13395 12.0402 6.22023 12.0401C6.35745 12.0403 6.49043 11.9925 6.59609 11.905C6.65555 11.8557 6.70471 11.7951 6.74074 11.7268C6.77677 11.6585 6.79897 11.5837 6.80606 11.5068C6.81315 11.4299 6.805 11.3523 6.78207 11.2786C6.75914 11.2048 6.72188 11.1363 6.67243 11.0769L4.5406 8.51638H11.5058C11.6615 8.51638 11.8109 8.4545 11.921 8.34436C12.0312 8.23423 12.093 8.08485 12.093 7.92909C12.093 7.77334 12.0312 7.62396 11.921 7.51382C11.8109 7.40369 11.6615 7.34181 11.5058 7.34181Z" fill="#F53838"/>
</svg>
