<svg width="9" height="9" viewBox="0 0 9 9" fill="none" xmlns="http://www.w3.org/2000/svg">
<path d="M7.30268 3.09439L5.43879 2.82351L4.60559 1.13434C4.58283 1.08809 4.54539 1.05065 4.49914 1.02789C4.38315 0.97063 4.24221 1.01835 4.18421 1.13434L3.351 2.82351L1.48712 3.09439C1.43573 3.10173 1.38875 3.12596 1.35278 3.16266C1.30929 3.20736 1.28533 3.26749 1.28615 3.32985C1.28698 3.3922 1.31253 3.45168 1.35718 3.49521L2.70573 4.80999L2.38713 6.66653C2.37966 6.70972 2.38444 6.75414 2.40092 6.79475C2.41741 6.83536 2.44495 6.87053 2.48041 6.89629C2.51587 6.92204 2.55784 6.93735 2.60156 6.94047C2.64528 6.94358 2.68899 6.93439 2.72775 6.91393L4.3949 6.03741L6.06205 6.91393C6.10756 6.93815 6.16042 6.94623 6.21107 6.93742C6.3388 6.91539 6.42469 6.79427 6.40267 6.66653L6.08407 4.80999L7.43262 3.49521C7.46932 3.45924 7.49355 3.41226 7.50089 3.36087C7.52071 3.2324 7.43115 3.11348 7.30268 3.09439Z" fill="#FEA250"/>
</svg>
