<svg width="17" height="17" viewBox="0 0 17 17" fill="none" xmlns="http://www.w3.org/2000/svg">
<path d="M11.1988 8.21241C11.1988 8.86659 10.9389 9.49397 10.4763 9.95655C10.0137 10.4191 9.38636 10.679 8.73218 10.679C8.07801 10.679 7.45062 10.4191 6.98804 9.95655C6.52547 9.49397 6.2656 8.86659 6.2656 8.21241C6.2656 8.07181 6.2804 7.93451 6.30589 7.80131H5.4434V11.0876C5.4434 11.3162 5.6284 11.5012 5.85697 11.5012H11.6082C11.7178 11.501 11.8227 11.4573 11.9001 11.3798C11.9775 11.3022 12.021 11.1972 12.021 11.0876V7.80131H11.1585C11.184 7.93451 11.1988 8.07181 11.1988 8.21241ZM8.73218 9.8568C8.94818 9.85674 9.16206 9.81415 9.36159 9.73144C9.56113 9.64873 9.74242 9.52753 9.89511 9.37476C10.0478 9.22198 10.1689 9.04063 10.2515 8.84106C10.3341 8.64148 10.3766 8.42758 10.3766 8.21159C10.3765 7.99559 10.3339 7.78172 10.2512 7.58218C10.1685 7.38264 10.0473 7.20135 9.89453 7.04866C9.74176 6.89596 9.56041 6.77485 9.36083 6.69224C9.16125 6.60963 8.94736 6.56714 8.73136 6.5672C8.29513 6.56731 7.87682 6.7407 7.56843 7.04924C7.26005 7.35778 7.08686 7.77618 7.08697 8.21241C7.08708 8.64864 7.26048 9.06696 7.56901 9.37534C7.87755 9.68372 8.29596 9.85691 8.73218 9.8568ZM10.7055 6.4858H11.6913C11.7568 6.4858 11.8196 6.45984 11.866 6.4136C11.9124 6.36737 11.9385 6.30463 11.9387 6.23914V5.25333C11.9387 5.18769 11.9127 5.12474 11.8663 5.07833C11.8198 5.03192 11.7569 5.00585 11.6913 5.00585H10.7055C10.6398 5.00585 10.5769 5.03192 10.5305 5.07833C10.484 5.12474 10.458 5.18769 10.458 5.25333V6.23914C10.4588 6.3748 10.5698 6.4858 10.7055 6.4858ZM8.73218 0.319336C6.63881 0.319336 4.63118 1.15092 3.15094 2.63116C1.6707 4.1114 0.839111 6.11904 0.839111 8.21241C0.839111 10.3058 1.6707 12.3134 3.15094 13.7937C4.63118 15.2739 6.63881 16.1055 8.73218 16.1055C9.76872 16.1055 10.7951 15.9013 11.7527 15.5047C12.7104 15.108 13.5805 14.5266 14.3134 13.7937C15.0464 13.0607 15.6278 12.1906 16.0244 11.233C16.4211 10.2753 16.6253 9.24894 16.6253 8.21241C16.6253 7.17588 16.4211 6.14949 16.0244 5.19186C15.6278 4.23423 15.0464 3.3641 14.3134 2.63116C13.5805 1.89822 12.7104 1.31682 11.7527 0.92016C10.7951 0.523496 9.76872 0.319336 8.73218 0.319336ZM12.8432 11.4099C12.8432 11.9123 12.4321 12.3234 11.9297 12.3234H5.53467C5.03231 12.3234 4.62121 11.9123 4.62121 11.4099V5.01489C4.62121 4.51253 5.03231 4.10143 5.53467 4.10143H11.9297C12.4321 4.10143 12.8432 4.51253 12.8432 5.01489V11.4099Z" fill="white"/>
</svg>
