<svg width="27" height="27" viewBox="0 0 27 27" fill="none" xmlns="http://www.w3.org/2000/svg">
<rect x="0.228271" y="0.284698" width="25.8404" height="25.8404" rx="12.9202" fill="#FFECEC"/>
<path fill-rule="evenodd" clip-rule="evenodd" d="M13.1484 12.6411C13.597 12.6411 14.0272 12.4629 14.3444 12.1457C14.6616 11.8285 14.8398 11.3983 14.8398 10.9497C14.8398 10.5011 14.6616 10.0709 14.3444 9.75374C14.0272 9.43654 13.597 9.25835 13.1484 9.25835C12.6999 9.25835 12.2697 9.43654 11.9525 9.75374C11.6353 10.0709 11.4571 10.5011 11.4571 10.9497C11.4571 11.3983 11.6353 11.8285 11.9525 12.1457C12.2697 12.4629 12.6999 12.6411 13.1484 12.6411ZM10.7517 17.7152C9.89577 17.7152 9.17477 16.9957 9.50232 16.2049C9.70065 15.7261 9.99135 15.2911 10.3578 14.9246C10.7243 14.5581 11.1594 14.2674 11.6382 14.0691C12.117 13.8708 12.6302 13.7687 13.1484 13.7687C13.6667 13.7687 14.1799 13.8708 14.6587 14.0691C15.1375 14.2674 15.5726 14.5581 15.9391 14.9246C16.3055 15.2911 16.5962 15.7261 16.7946 16.2049C17.1221 16.9957 16.4011 17.7152 15.5452 17.7152H10.7517Z" fill="#F53838"/>
</svg>
