<svg width="11" height="10" viewBox="0 0 11 10" fill="none" xmlns="http://www.w3.org/2000/svg">
<path d="M9.50576 4.34181H2.5406L4.67243 1.78126C4.77212 1.66133 4.82008 1.50671 4.80576 1.35142C4.79144 1.19612 4.71602 1.05288 4.59609 0.953193C4.47615 0.853509 4.32153 0.80555 4.16624 0.819868C4.01095 0.834186 3.8677 0.909607 3.76802 1.02954L0.831608 4.55323C0.811852 4.58126 0.794186 4.6107 0.778753 4.64132C0.778753 4.67069 0.778753 4.68831 0.737643 4.71767C0.711024 4.78501 0.697086 4.85669 0.696533 4.92909C0.697086 5.0015 0.711024 5.07318 0.737643 5.14051C0.737643 5.16988 0.737643 5.1875 0.778753 5.21686C0.794186 5.24748 0.811852 5.27693 0.831608 5.30495L3.76802 8.82865C3.82324 8.89494 3.89238 8.94825 3.97054 8.9848C4.0487 9.02134 4.13395 9.04021 4.22023 9.04007C4.35745 9.04034 4.49043 8.99255 4.59609 8.90499C4.65555 8.85569 4.70471 8.79514 4.74074 8.72681C4.77677 8.65848 4.79897 8.58372 4.80606 8.5068C4.81315 8.42988 4.805 8.35232 4.78207 8.27855C4.75914 8.20479 4.72188 8.13627 4.67243 8.07693L2.5406 5.51638H9.50576C9.66152 5.51638 9.8109 5.4545 9.92104 5.34436C10.0312 5.23423 10.093 5.08485 10.093 4.92909C10.093 4.77334 10.0312 4.62396 9.92104 4.51382C9.8109 4.40369 9.66152 4.34181 9.50576 4.34181Z" fill="#F53838"/>
</svg>
